<?xml version="1.0" encoding="UTF-8"?>
<svg id="Layer_1" xmlns="http://www.w3.org/2000/svg" version="1.1" viewBox="0 0 344.4 265.9">
  <!-- Generator: Adobe Illustrator 29.8.2, SVG Export Plug-In . SVG Version: 2.1.1 Build 3)  -->
  <defs>
    <style>
      .st0 {
        fill: #232323;
      }
    </style>
  </defs>
  <path class="st0" d="M339.8,219.6c0-1.2-.8-3.4-.7-4.2,1-6.8,1.3-14.6,1.8-21.6.2-2.6-2.4-8.1-.9-9.8.2-.3-1.8-5.6-2-6l-2.3-.6c0-.8,1.9-.2,2.1-.9s-3.2-6.5-4.5-8c-2.7-3.5-6.8-1.5-6.9-3.2-.2-2,5.3,1.1,5.3,1,.2-.9-.8-1.5-1.3-2.3-2.3-3.8-4.5-7.6-6.3-11.7-6.4-14.7-17.4-27.6-22.7-42.8-.8-2.3-4.9-11.1-4.5-12.9.2-1.4,3.6.2,4.1.8,1.4,1.4-3.2,3.3-.3,5.4,3.6,2.5,8.1-2.6,8.3,3.9,0,.5-.1.9-.2,1.4-.1.9-.3,1.8-.5,2.7,0,.5-.3.9-.2,1.4-.3,5.4,1,12.6,4.3,16.9.4.6,3.6,6.1,4.2,5.9.9-.5-3.1-5.5-4.4-7.5-1-1.6-3.9-13.7-3.4-15.5.4-1.4,2.7-1.4,2.6-3.3-.1-4.3-11.8-17.1-14.8-21.1-11.6-16-19.2-33.6-25.5-52.3-.7-2.2-2.2-4.5-2.6-6.8-.3-1.5.3-4-.4-5.4-.2-.5-1.2-.2-1.5-.6-.5-.8.2-2.3-.2-3.1-.4-.8-4.9-3.7-3.9-4.7,1.2-1.2,2.6,2.8,3,2.4.5-.6-.7-1.5-.8-2.2-.2-1.6.8-3.8.3-5.5-.7-2-1.4.4-2.1.2-.7-.2-.7-.9-.6-1.7l-.2.2c-5,2.3-17.1-5-20-3.3l-.6,1.6c-4.2,2.2-1.3,6.5-.7,10.1,0,.5-.2,1-.2,1.4-.2,1.8-.7,3.7-.8,5.6,0,.8.7,1.8.1,2.3,0,0-2.5.2-2.6.2-7,.5-3.1-1.2-4-5.2-.3-.8-2-1.3-2.2-2.1-.3-1.1,1.8-.7-.8-1.6-4.3-1.4-31-.1-37.6-.3-17.6-.3-35.3-.6-52.9-1.1-2.7,0-18.3.1-19.4-.7-2.9-1.7-1.8-4.3-3-7.6-.6-1.7-2.9-4.5-2.9-4.5-26,.5-51.9.8-77.9.6-4.7,0-29.1-1.2-31.4-.3-.2,0,0,2.1,0,2.4-.3.9-1.6,2.9-1.4,3.8.2,1,4.1,5.4,4.9,6.2,1.2,1.3,5,1.6,4.9,3.9,0,1.8-2.2,3.6-2.2,5.4,0,1.2,1.1,2.2,2.2,3,1,0,3,1.1,2.8,1.6-.3.7-3,.9-3.5,1.5-.7.9.9,2.4-.7,3.1-.6.3-1.6-.6-2.1,0-.4.4,1.6.3,1.4.8,0,.2-.4.2-.9.4.2.1.3.2.1.4-1.6.8-1.4-.5-1.4,1.5,1.8-.1,4.6-1.1,4.9-1.2.8-.3,3-.4,3.6-1v-1.6c3.9-2.1,0-.2,2.1-2.3,1.2-1.2,3.4-1.1,4.3-3.1.9-2-2.8-3.2-1.4-5.4.4-.5,1.2.4,1.8.8.4.3.9.3,1.1.8,0,.3-1,.5-.7.8,1.4,1.5,1.4-1.3,1.4,2.6,0,.5.3,1.6.7,1.3,2.3-2.2,2.6-7,2.8-7,1.9,0,0,1.1.7,1.5.5.3,1-.2,1.4,0,.3.1-.4.2-.7.4-.5.3-1.8,2-1.4,2.7.5,1,4,.8,4.9,1.5.4.4,1.2,1.3.7,1.5l-2.2-.7c-.9,0-2,1.3-2.8,1.5-2,.7-6.1.3-7.8,1.5s0,.5,0,.8-.2.7,0,.8c2,.8,13.9-2.8,17-3.1,3.4-.3,6.9-.3,9.9-.9.9-.1,2.1-1.5,2.5-2.4.1-.3.3-.5.3-.7,0-.3-.3-.7,0-.8.4,0,.4.8.7.8,2.2,0,1.4-1.9,1.4.7l.7,1.5c.6,0,2.2-1.3,2.8-1.5,2.4-.9,4.4.2,6.4-.9.4-.2-.4,1.2,0,1.5.8.6,3.5-1.5,2.8,0-.2.4-.7.5-.7.8l1.5.7c1.2,2,1,3,.8,3.1-1.9.4-4.4-3.2-6.4-3-.3,0-.7.5-.7.8,0,.5,1.8.4,1.5.7-1.3,1.5-2.9-1.6-3.5-1.5-.6,0-.2,1.4-.7,1.6-2.2,1-5-1.4-7.1-.3-.2.2-.8.2-.7.4.3.2,17.3,4,19.6,4.9,3.9,1.6,14.5,7.1,15.3,6.2.5-.5-1.9-.1-2.2-.7-.4-.8.8-1.5.7-2.4-.3-1.3-8.8-1-4.3-3.1,1.1-.4,1.8.4,2.8,0,.5-.2.2-1.6.7-1.6v1.6c.5.2,1.1-.3,1.4,0,.6.5-.6,2,0,2.3,0,0,2.2-2.3,2.8-2.3l1.5.7c.7-.2.7-1.6,1.3-1.6.3,0-.5,2.2-.7,2.4-.9.4-2-.4-2.8,0-.7.4-1.5,2.4-2.1,3.1-.7.8,5,2.1,6.4,2.2,3.9.2,2.1.6,3.7,3.8,0,.2.1.3.3.4.2,0,.3.1.5.2.6,0,1.2-1.2,2.1-.7,0,0,1.6-.3.8.7-.5.6-1.6.4-2.9,0,0,0-.3-.1-.5-.2-3.7-1.7-8.8-5.8-7.8-2.6.4,1.2,3.5,2.1,4.3,3,.7.8.8,2.4,1.8,3.1.9.5,2.5.2,3.6.7,3.2,1.4,8.1,7.8,6,11.5-1.5,2.5-3.2-1-3.6-2.3-.7-2.3-.6-5.3-.8-5.4-2,0,.5,7.7,1.6,8.5,1.3.9,10-1.9,12.1-1.8.8,0,2.1.9,2.9.7,1.7-.5,4-5.6,6.2-4.8.8.2-1.4,2.9-1.3,3.2,0,.9,8.4-3.8,9.7-4.6,1.8-1.1,4.6-3.9,6.5-4.4.5-.1.9.7,1.5.7.7,0,4.8-2.4,5-.2,0,.3-1,.5-.7.8,1.5,1.4,2.3-1.9,2.1-2.3-.6-1.2-5.2-.9-5.7-2.1-1-2,4,.5,4,.3.2-.5-.6-.8-.5-1.3.2-3.3,2.1-2,4.2-3.2l.7-1.6c.7-.6,4.2,1.4,4.3,1.4l1.3-1.6c2.3-1,5.3,0,7.3,1.3,1.1.7,5.9,4.7,7.1,4.3.3-.1.3-.7.6-.8.8,0,8.3,6.2,8.8,7.4.4.8-.4,2.3,0,3.1.7,1.1,3.9,2.2,5.1,2.9,6.8,3.6.7,4.7,3.2,7.6,1.1,1.3,6.7,3.4,8,4.3,2,1.3,2.1,3.9,3.1,5.3.6.7,2.2.7,3,1.4,1.1.9.8,3,1.7,3.7,1.4,1.3,9.2-.7,10.3.3,1.2,1.2.5,2.4.7,3.1l2.2,1.5c.7,1,.3,3.4.9,4.6.9,1.7,3.6,2.2,4.6,3.6.8,1.2.3,4.6.3,4.6-1.6.1,0-1.6-1.6-1.4-1.1,0,1,2,1.6,3,.9,1.2-.8,2.9-.5,3.9.2.7,1.4,4.7,1.1,6.1,0,0-1.3,1.6-1.4,1.7-.3.9.4,2.1.2,3.1-.3,1.5-2.8,4-2.6,5.5.2,1.2,0,3.8-1.2,5.5-.3.5-1.2.4-1.4.9-.7,1.3,1.2,2.8,1.7,3.7.7,1.5-1.3,8.9-2.3,10.1-.2.3.1-.7.2-1.1,0,0,.6-2.7-.5-.2-2.1,4.3,2.6,5.4,4.4,7.9.6.8.1,3.4,1.7,3.7.7.1-.3-1.9-.9-3-1-1.7-3.9-3.1-3.9-5.2,0-.7,1.1.3,3,2.2l1.6,2.2c.5.3,1.1-.4,1.5,0,.2.1,1.2,3.9,2.2,1.5.9-2,.3-5,1-7l1.4-1.7c0-.2-2.6.3-2.9.1-.3-.1-2.6-1.4-2.8-1.6-1.6-2,2.1-1.4,1.5-1.7-.5-.3-2.2-1.6-1.2-2.8.6-.6,3.6,1,3.7,1.5.1.3-.8.5-.7.8.3.7,3.2.4,3.8,1.3.9,1.5-1.1,3.8.3,4.6l2.3.7c1.2-1-1.6-4.5,1.2-5.5,1.6-.5,3.2,4.2,3.2,5.2,0,1.5-6.4,7.5-7.2,10.1,0,0-.6,1.7-.8,2.4.3,0,.5,0,.7.2l-1.4,1.7c-.4.2-1.5-.4-1.5,0s2,.4,1.5.6c-.3.1-.7-.1-1-.2s-.7-.4-1-.2c-1.3,1.1,1.1,1.6-1.3,1.7-1,0-1.3-.5-1.9-1-.3-.2-.8-1.1-.8-.7.2,3.2,6.2,3.5,7.4,6,1.3,2.6.2,4,.6,5,.5,1.5,2.9,1.8,3.5,2.8.2.2.7.7.4.8s-.5-.8-.8-.7c-.4,0,4.2,8,4.7,8.9,2.1,3.4,4.3,7.1,8.6,8.3.7.2,2.4-.6,2.6-.6,1,.5-1.1,1.6.8,1.5.4,0-.2-.8-.3-1.2-.3-1.1-.6-4.7-1.6-5.5-.5-.5-1.8-.2-2.3-.7-.3-.2-.6-2-.9-2.2-.3-.2-1.1-.6-.8-.7.2-.2.5.3.7.3,1.5.6.2.9.9,1.8,1,1.3,1.8-.2,2.2-.1l1.6,2.2,1.4-2.4c1.1-.5,3,.6,4.4-.3.7-.4.8-2,1.4-1.7,2,1.8-4.9,4-4.9,4.9l2.4,1.4c1.5,2.4-1.1,5.4-1,7.7,0,1.5,1.7,2.9,1.8,4.4.1,2.3-1,2,1,3.7l1.4-.9c3-1,4.1-8.4,6.6-7.7,1,.4-1.9,3.4-2.1,3.9-1.8,4.5-4.2,4.2-5,6l1,.2,1,.2c1,.2,3.2,1.7,4.1,1.6,1.8-.4-1.3-3.8,1.5,0,1,1.2.2,2.6.3,3.8,0,.9,1.8,2,1.7,2.9,0,.4-.7.5-.7.8-.8,4.2,3.7,7.8,5.3,11,.1.3.3,2.1.9,2.2s1.5-1.1,2.2-.9c1,.3-.6,2.3-1.4,2.4-.6,0-1.2-1.1-1.6-.7-.2.3,0,.8.1,1.1,0,.4-.3.9.1,1.1,1.7,1.1,4.1-2.6,5.1-2.6.9,0,1.5,2.1,1.6,2.1l1.4-.9c.9.1,3.7,1.8,3.9,2,1.2,1.1,6.8.7,7,3.3l-1.4.9c-.4,2.7,2.4,2.2,3.2,2.8,1.5,1.2,1.3,4.7,2.7,5.9.6.5,1.9,0,2.3.6l-.6,2.3,1.7,1.5c.5,1,.3,2.9,1,3.7,2.6,2.9,8.5,1.2,11.1,5.2.9,1.5-1.6,2.7-2.9,2.5s-.7-.3-.8-.7c0-.3.9-.5.7-.8-.3-.5-3.3-.9-3.9-1.2-.6-.3-1.7-2-2.4-2.1-3.4-.4-2.4,5.5-1,6.9,2.5,2.5,7.6,2.2,10.7.7,1.1-.5,1.7-2.2,2.8-2.5s4.3,2.4,6.3,1.8c.8-.3,2.6-2.4,2.8-2.5,0,0,2.2-.1,2.3-.2,1.3-1.2,0-3.1,2.8-3.3,2.6-.2.3,1.9.9,2.2l1.4-.9c.4,0,.8.5,1.2,1.1.2-.2.4-.3-.5-1.1-.3-.4-1.7.6-1.5.2,1-2.5,2.3-1.2,3.3-.2-.2-.3-.4-.6-.4-.8.3-2.7,4.9-5,4.6-7.3,0-1-2-3.1-1.9-4.4,0-.9,1.1-1.5,1.3-2.4.3-1-.7-2.8-.3-3.8.3-.8,1.6-.9,2.2-1.7l.3-2.5c0-.4-.2-.9.1-1.3.5-.7,2.4-.3,2.9-1,.5-.8-1.2-4.4.7-5,2.3-.6.9,4.1,1.5,4.1-.5.7-.6-8.1-.4-10.4"/>
</svg>