<?xml version="1.0" encoding="UTF-8"?>
<svg id="Layer_1" xmlns="http://www.w3.org/2000/svg" version="1.1" viewBox="0 0 797 243">
  <!-- Generator: Adobe Illustrator 29.8.2, SVG Export Plug-In . SVG Version: 2.1.1 Build 3)  -->
  <defs>
    <style>
      .st0 {
        isolation: isolate;
      }

      .st1 {
        fill: #fff;
      }

      .st2 {
        fill: #d0ae63;
      }
    </style>
  </defs>
  <g>
    <g class="st0">
      <g>
        <path class="st2" d="M173,92.3h22.9v33c-4.6,3.2-10,5.7-16.1,7.4-6.1,1.7-12.1,2.6-18,2.6-8.3,0-15.8-1.7-22.4-5.2-6.6-3.5-11.8-8.3-15.6-14.5-3.8-6.2-5.6-13.2-5.6-21.1s1.9-14.9,5.6-21.1c3.8-6.2,9-11,15.7-14.5,6.7-3.5,14.3-5.2,22.8-5.2s14.5,1.3,20.6,3.8c6.1,2.6,11.1,6.3,15.1,11.2l-16.8,14.8c-4.9-5.7-10.7-8.6-17.5-8.6s-10.4,1.7-13.8,5.2c-3.4,3.5-5.1,8.3-5.1,14.3s1.7,10.6,5.1,14.2c3.4,3.6,7.9,5.4,13.5,5.4s6.5-.6,9.6-1.9v-19.7Z"/>
        <path class="st2" d="M232.1,130c-6.7-3.5-11.9-8.3-15.7-14.6-3.8-6.2-5.7-13.2-5.7-21s1.9-14.8,5.7-21c3.8-6.2,9-11.1,15.7-14.6,6.7-3.5,14.2-5.2,22.6-5.2s15.9,1.7,22.6,5.2c6.7,3.5,11.9,8.3,15.7,14.6,3.8,6.2,5.7,13.2,5.7,21s-1.9,14.8-5.7,21c-3.8,6.2-9,11.1-15.7,14.6-6.7,3.5-14.2,5.2-22.6,5.2s-15.9-1.7-22.6-5.2ZM263.6,111.6c2.6-1.6,4.7-3.9,6.3-6.8,1.6-2.9,2.3-6.4,2.3-10.3s-.8-7.4-2.3-10.3c-1.6-2.9-3.7-5.2-6.3-6.8-2.6-1.6-5.6-2.4-8.9-2.4s-6.2.8-8.9,2.4c-2.6,1.6-4.7,3.9-6.3,6.8-1.6,2.9-2.3,6.4-2.3,10.3s.8,7.4,2.3,10.3c1.6,2.9,3.7,5.2,6.3,6.8,2.6,1.6,5.6,2.4,8.9,2.4s6.2-.8,8.9-2.4Z"/>
        <path class="st2" d="M315.1,55.4h26.3v57.6h35.2v20.4h-61.6V55.4Z"/>
        <path class="st2" d="M390.6,55.4h38.5c8.7,0,16.4,1.6,23,4.7,6.7,3.2,11.8,7.7,15.5,13.5,3.7,5.9,5.5,12.8,5.5,20.7s-1.8,14.9-5.5,20.7c-3.7,5.9-8.8,10.4-15.5,13.5-6.7,3.2-14.3,4.7-23,4.7h-38.5V55.4ZM427.9,113c5.6,0,10.2-1.6,13.6-4.9,3.4-3.2,5.1-7.8,5.1-13.7s-1.7-10.4-5.1-13.7c-3.4-3.2-7.9-4.9-13.6-4.9h-11v37h11Z"/>
        <path class="st2" d="M489.4,55.4h26.3v57.6h35.2v20.4h-61.6V55.4Z"/>
        <path class="st2" d="M618.1,119.9h-29.7l-5.2,13.6h-26.8l34.1-78.1h25.9l34.1,78.1h-27.2l-5.2-13.6ZM610.8,100.9l-7.6-19.6-7.6,19.6h15.2Z"/>
        <path class="st2" d="M782.8,55.4l-25,78.1h-28.2l-12.6-41.7-13.3,41.7h-28.2l-25-78.1h27.1l13.6,44.4,14.4-44.4h24.2l13.6,44.9,14.4-44.9h25Z"/>
      </g>
      <g>
        <path class="st2" d="M173,92.3h22.9v33c-4.6,3.2-10,5.7-16.1,7.4-6.1,1.7-12.1,2.6-18,2.6-8.3,0-15.8-1.7-22.4-5.2-6.6-3.5-11.8-8.3-15.6-14.5-3.8-6.2-5.6-13.2-5.6-21.1s1.9-14.9,5.6-21.1c3.8-6.2,9-11,15.7-14.5,6.7-3.5,14.3-5.2,22.8-5.2s14.5,1.3,20.6,3.8c6.1,2.6,11.1,6.3,15.1,11.2l-16.8,14.8c-4.9-5.7-10.7-8.6-17.5-8.6s-10.4,1.7-13.8,5.2c-3.4,3.5-5.1,8.3-5.1,14.3s1.7,10.6,5.1,14.2c3.4,3.6,7.9,5.4,13.5,5.4s6.5-.6,9.6-1.9v-19.7Z"/>
        <path class="st2" d="M232.1,130c-6.7-3.5-11.9-8.3-15.7-14.6-3.8-6.2-5.7-13.2-5.7-21s1.9-14.8,5.7-21c3.8-6.2,9-11.1,15.7-14.6,6.7-3.5,14.2-5.2,22.6-5.2s15.9,1.7,22.6,5.2c6.7,3.5,11.9,8.3,15.7,14.6,3.8,6.2,5.7,13.2,5.7,21s-1.9,14.8-5.7,21c-3.8,6.2-9,11.1-15.7,14.6-6.7,3.5-14.2,5.2-22.6,5.2s-15.9-1.7-22.6-5.2ZM263.6,111.6c2.6-1.6,4.7-3.9,6.3-6.8,1.6-2.9,2.3-6.4,2.3-10.3s-.8-7.4-2.3-10.3c-1.6-2.9-3.7-5.2-6.3-6.8-2.6-1.6-5.6-2.4-8.9-2.4s-6.2.8-8.9,2.4c-2.6,1.6-4.7,3.9-6.3,6.8-1.6,2.9-2.3,6.4-2.3,10.3s.8,7.4,2.3,10.3c1.6,2.9,3.7,5.2,6.3,6.8,2.6,1.6,5.6,2.4,8.9,2.4s6.2-.8,8.9-2.4Z"/>
        <path class="st2" d="M315.1,55.4h26.3v57.6h35.2v20.4h-61.6V55.4Z"/>
        <path class="st2" d="M390.6,55.4h38.5c8.7,0,16.4,1.6,23,4.7,6.7,3.2,11.8,7.7,15.5,13.5,3.7,5.9,5.5,12.8,5.5,20.7s-1.8,14.9-5.5,20.7c-3.7,5.9-8.8,10.4-15.5,13.5-6.7,3.2-14.3,4.7-23,4.7h-38.5V55.4ZM427.9,113c5.6,0,10.2-1.6,13.6-4.9,3.4-3.2,5.1-7.8,5.1-13.7s-1.7-10.4-5.1-13.7c-3.4-3.2-7.9-4.9-13.6-4.9h-11v37h11Z"/>
        <path class="st2" d="M489.4,55.4h26.3v57.6h35.2v20.4h-61.6V55.4Z"/>
        <path class="st2" d="M618.1,119.9h-29.7l-5.2,13.6h-26.8l34.1-78.1h25.9l34.1,78.1h-27.2l-5.2-13.6ZM610.8,100.9l-7.6-19.6-7.6,19.6h15.2Z"/>
        <path class="st2" d="M782.8,55.4l-25,78.1h-28.2l-12.6-41.7-13.3,41.7h-28.2l-25-78.1h27.1l13.6,44.4,14.4-44.4h24.2l13.6,44.9,14.4-44.9h25Z"/>
      </g>
    </g>
    <g>
      <path class="st1" d="M48.7,164.4c0,7-5.4,11.5-13.9,11.5h-4.4v7.5h-10.3v-30.4h14.7c8.5,0,13.9,4.4,13.9,11.5ZM38.4,164.4c0-2.2-1.3-3.6-4.2-3.6h-3.7v7.1h3.7c2.8,0,4.2-1.3,4.2-3.6Z"/>
      <path class="st1" d="M80.8,175.6v7.7h-25.3v-30.4h24.7v7.7h-14.7v3.6h12.9v7.4h-12.9v4h15.2Z"/>
      <path class="st1" d="M101.2,175.7h-2.8v7.7h-10.3v-30.4h14.7c8.5,0,13.9,4.4,13.9,11.5s-2.1,7.7-5.7,9.6l6.4,9.4h-11l-5.2-7.7ZM102.1,160.8h-3.7v7.1h3.7c2.8,0,4.2-1.3,4.2-3.6s-1.3-3.6-4.2-3.6Z"/>
      <path class="st1" d="M122,180.9l3.3-7.5c2.9,1.7,6.7,2.8,10,2.8s4-.6,4-1.7c0-3.8-16.8-.7-16.8-12.1s4.7-10.3,14.2-10.3,8.3.9,11.5,2.7l-3.1,7.4c-3-1.5-5.8-2.3-8.5-2.3s-4,.9-4,1.9c0,3.7,16.8.6,16.8,11.8s-4.7,10.3-14.2,10.3-10.2-1.3-13.3-3.1Z"/>
      <path class="st1" d="M154.7,168.1c0-9.2,7.3-15.9,17.2-15.9s17.2,6.7,17.2,15.9-7.3,15.9-17.2,15.9-17.2-6.7-17.2-15.9ZM178.7,168.1c0-4.7-3-7.6-6.8-7.6s-6.8,2.9-6.8,7.6,3,7.6,6.8,7.6,6.8-2.9,6.8-7.6Z"/>
      <path class="st1" d="M226.2,152.9v30.4h-8.4l-11.6-13.8v13.8h-10v-30.4h8.4l11.6,13.8v-13.8h10Z"/>
      <path class="st1" d="M255.3,178h-11.6l-2,5.3h-10.4l13.3-30.4h10.1l13.3,30.4h-10.6l-2-5.3ZM252.4,170.6l-3-7.7-3,7.7h5.9Z"/>
      <path class="st1" d="M273,152.9h10.3v22.5h13.7v8h-24v-30.4Z"/>
      <path class="st1" d="M319.6,152.9h10.3v30.4h-10.3v-30.4Z"/>
      <path class="st1" d="M368.3,152.9v30.4h-8.4l-11.6-13.8v13.8h-10v-30.4h8.4l11.6,13.8v-13.8h10Z"/>
      <path class="st1" d="M373.1,179.5l5.5-6.5c1.6,2,3.1,3,4.8,3s3.3-1.3,3.3-3.8v-11.6h-10.4v-7.7h20.5v18.7c0,8.3-4.4,12.4-12.6,12.4s-8.7-1.6-11.2-4.5Z"/>
      <path class="st1" d="M404.7,169.6v-16.7h10.3v16.4c0,4.7,1.8,6.4,4.7,6.4s4.7-1.7,4.7-6.4v-16.4h10.1v16.7c0,9.1-5.5,14.4-14.8,14.4s-14.8-5.3-14.8-14.4Z"/>
      <path class="st1" d="M455.5,175.7h-2.8v7.7h-10.3v-30.4h14.7c8.5,0,13.9,4.4,13.9,11.5s-2.1,7.7-5.7,9.6l6.4,9.4h-11l-5.2-7.7ZM456.5,160.8h-3.7v7.1h3.7c2.8,0,4.2-1.3,4.2-3.6s-1.3-3.6-4.2-3.6Z"/>
      <path class="st1" d="M495.9,172.3v11h-10.3v-11.2l-11.5-19.3h10.8l6.2,10.5,6.3-10.5h9.9l-11.5,19.4Z"/>
      <path class="st1" d="M528.5,152.9h10.3v22.5h13.7v8h-24v-30.4Z"/>
      <path class="st1" d="M580,178h-11.6l-2,5.3h-10.4l13.3-30.4h10.1l13.3,30.4h-10.6l-2-5.3ZM577.1,170.6l-3-7.7-3,7.7h5.9Z"/>
      <path class="st1" d="M645.4,152.9l-9.7,30.4h-11l-4.9-16.3-5.2,16.3h-11l-9.7-30.4h10.6l5.3,17.3,5.6-17.3h9.4l5.3,17.5,5.6-17.5h9.7Z"/>
      <path class="st1" d="M668.5,172.3v11h-10.3v-11.2l-11.5-19.3h10.8l6.2,10.5,6.3-10.5h9.9l-11.5,19.4Z"/>
      <path class="st1" d="M710,175.6v7.7h-25.3v-30.4h24.7v7.7h-14.7v3.6h12.9v7.4h-12.9v4h15.2Z"/>
      <path class="st1" d="M730.4,175.7h-2.8v7.7h-10.3v-30.4h14.7c8.5,0,13.9,4.4,13.9,11.5s-2.1,7.7-5.7,9.6l6.4,9.4h-11l-5.2-7.7ZM731.4,160.8h-3.7v7.1h3.7c2.8,0,4.2-1.3,4.2-3.6s-1.3-3.6-4.2-3.6Z"/>
      <path class="st1" d="M751.3,180.9l3.3-7.5c2.9,1.7,6.7,2.8,10,2.8s4-.6,4-1.7c0-3.8-16.8-.7-16.8-12.1s4.7-10.3,14.2-10.3,8.3.9,11.5,2.7l-3.1,7.4c-3-1.5-5.8-2.3-8.5-2.3s-4,.9-4,1.9c0,3.7,16.8.6,16.8,11.8s-4.7,10.3-14.2,10.3-10.2-1.3-13.3-3.1Z"/>
    </g>
  </g>
  <path class="st2" d="M21.1,105.2l3.6-5,1.5-2.2,2.7-3.8h0c0-.2,0-.3,0-.5,0-1.8.2-3.6.5-5.4.4-2.2,1-4.3,1.8-6.3,3.4-8.1,10.2-14.5,18.7-17.2h0c2.4-.8,4.9-1.2,7.5-1.4.6,0,1.2,0,1.7,0,4.1,0,8,.8,11.5,2.3,1.9.8,3.6,1.7,5.3,2.8.6.4,1.3.9,1.9,1.4,0,0,0,0,0,0,4,3.2,7.3,7.4,9.3,12.2h12.3c-2.7-9.5-8.7-17.6-16.7-23-1.6-1.1-3.4-2.1-5.2-3-3.8-1.9-7.9-3.2-12.2-3.8-2-.3-4.1-.5-6.2-.5h0c-19.1,0-35.2,12.8-40.3,30.3-.6,2-1,4.1-1.3,6.3-.2,1.8-.3,3.5-.3,5.4s.2,4.3.5,6.4c.3,1.7.6,3.3,1.1,5,.2.7.4,1.5.7,2.2l1.6-2.2Z"/>
  <path class="st2" d="M82,105.2h-39.4l3.6-5,8.4-11.7,4.5-6.3,8.5-11.8c-2.6-.7-5.2-1.1-8-1.1s-4.5.2-6.6.7l-8.7,12.2-4.5,6.3-8.4,11.7-1.2,1.7-.7.9-.9,1.2-.8,1.1-5.7,7.9-3.1,4.3h50.3c5.4-2.7,9.8-7,12.8-12.3Z"/>
  <g>
    <path class="st2" d="M100.7,88.5h-38.9l-8.4,11.7h35.4c-.4,1.7-.9,3.4-1.5,5-2,4.8-5.1,9-9.1,12.3-3.1,2.5-6.7,4.4-10.6,5.5-2.7.8-5.5,1.2-8.4,1.2s-5.7-.4-8.4-1.2h-21.7c.1.2.3.3.4.4,1.4,1.4,2.9,2.7,4.5,3.9,7,5.3,15.7,8.4,25.2,8.4s22.5-4.9,30.1-12.8c1.6-1.7,3.1-3.5,4.5-5.5,2.5-3.7,4.5-7.8,5.7-12.3.5-1.6.8-3.3,1.1-5,.3-2.1.5-4.2.5-6.4,0-1.8-.1-3.6-.3-5.4Z"/>
    <path class="st2" d="M100.7,88.5h-38.9l-8.4,11.7h35.4c-.4,1.7-.9,3.4-1.5,5-2,4.8-5.1,9-9.1,12.3-3.1,2.5-6.7,4.4-10.6,5.5-2.7.8-5.5,1.2-8.4,1.2s-5.7-.4-8.4-1.2h-21.7c.1.2.3.3.4.4,1.4,1.4,2.9,2.7,4.5,3.9,7,5.3,15.7,8.4,25.2,8.4s22.5-4.9,30.1-12.8c1.6-1.7,3.1-3.5,4.5-5.5,2.5-3.7,4.5-7.8,5.7-12.3.5-1.6.8-3.3,1.1-5,.3-2.1.5-4.2.5-6.4,0-1.8-.1-3.6-.3-5.4Z"/>
    <path class="st2" d="M100.7,88.5h-38.9l-8.4,11.7h35.4c-.4,1.7-.9,3.4-1.5,5-2,4.8-5.1,9-9.1,12.3-3.1,2.5-6.7,4.4-10.6,5.5-2.7.8-5.5,1.2-8.4,1.2s-5.7-.4-8.4-1.2h-21.7c.1.2.3.3.4.4,1.4,1.4,2.9,2.7,4.5,3.9,7,5.3,15.7,8.4,25.2,8.4s22.5-4.9,30.1-12.8c1.6-1.7,3.1-3.5,4.5-5.5,2.5-3.7,4.5-7.8,5.7-12.3.5-1.6.8-3.3,1.1-5,.3-2.1.5-4.2.5-6.4,0-1.8-.1-3.6-.3-5.4Z"/>
  </g>
</svg>