<?xml version="1.0" encoding="UTF-8"?>
<svg id="Layer_1" xmlns="http://www.w3.org/2000/svg" version="1.1" viewBox="0 0 1005.2 163.2">
  <!-- Generator: Adobe Illustrator 29.8.2, SVG Export Plug-In . SVG Version: 2.1.1 Build 3)  -->
  <defs>
    <style>
      .st0 {
        fill: #0db14b;
      }

      .st1 {
        fill: #e6e6e6;
      }

      .st2 {
        fill: #fff;
      }

      .st3 {
        fill: #0089d0;
      }

      .st4 {
        fill: #cc004c;
      }

      .st5 {
        fill: #6460aa;
      }

      .st6 {
        fill: #fcb711;
      }

      .st7 {
        fill: #f37021;
      }
    </style>
  </defs>
  <path class="st2" d="M123.2,38c-3.8-9.5-13.2-19.7-30.6-18.3-22.2,2.4-29.2,23.5-25.8,36.1-8.9-5.9-23.9-8.5-37.1,2.6-17,16.8-7.9,39.6,1.4,45.1-10.3-1-26.5,5.9-30.1,23.9-3.8,22.3,13.4,35.3,30.1,35.3h185.8c19.4,0,30.1-16.5,28.9-32.2-1.9-20.4-20.8-28.2-31.1-26.5,8.6-4.8,20.1-27.1,2.6-44.6-13.9-13.1-31.5-8.3-37.8-2.7,3.4-10.9-2.1-33.4-24.6-37-1.6-.1-3-.2-4.5-.2-17.2,0-24.9,12.4-27.3,18.5"/>
  <path class="st7" d="M32.8,62c-9.8,8.7-13.4,28.6,4.3,40.3l70.5,47.9-34.2-77.6c-7.2-18.3-26.8-22.2-40.6-10.6"/>
  <path class="st4" d="M93.5,24.3c-11.5.2-28.7,13.7-21,34.3l35.4,82.6,12.4-86.8c2.9-21.6-13.6-31.6-26.8-30.1"/>
  <path class="st5" d="M125.8,51h6.7s3.6,0,4.1,1.7c-2.6,2.1-9.8,2.4-8.8,13.8l11.2,74.7,35.1-82.8c7.2-18.5-7.9-33.9-21.3-34.4-.6,0-1.2-.1-1.9-.1-12,0-25.8,8.7-25.1,27.1"/>
  <path class="st3" d="M172.7,73.3l-33.2,76.6,70.5-48.1c16.3-11.4,13.6-29.6,4.5-38.7-3.8-4.2-10.8-7.5-18.2-7.5s-18.1,4.6-23.6,17.7"/>
  <path class="st0" d="M202.1,112.7l-66.2,45.8h81.5c16.7,0,27.5-17.1,22.7-32.8-3.2-9.8-12.7-17.5-23.7-17.5s-9.5,1.3-14.4,4.5"/>
  <path class="st6" d="M30.9,158.5h80.3l-66.2-45.8c-15.3-9.7-32.5-4-38.7,12.1-5.3,18.5,7.9,33.7,24.6,33.7"/>
  <path class="st1" d="M1004.7,133.7l-21.8-22c-6.1,5.6-12.2,10-18.3,13.3s-13.7,4.9-22.6,4.9-12.8-1.3-18.3-3.9-10.3-6.1-14.2-10.6c-3.9-4.4-7-9.6-9.2-15.5s-3.3-12.2-3.3-18.9v-.4c0-6.7,1.1-13,3.3-18.8,2.2-5.9,5.3-11,9.3-15.5,4-4.4,8.8-7.9,14.3-10.4,5.6-2.5,11.6-3.8,18.1-3.8s14.9,1.6,21.2,4.7c6.3,3.1,12.5,7.4,18.6,12.9l21.8-25.2c-3.6-3.5-7.4-6.8-11.6-9.7-4.2-3-8.7-5.5-13.6-7.6s-10.3-3.7-16.3-4.9-12.6-1.8-19.9-1.8c-12,0-23,2.1-32.9,6.4-9.9,4.2-18.5,10-25.6,17.3-7.1,7.3-12.7,15.9-16.7,25.6s-6,20.1-6,31.2v.4c0,11.2,2,21.6,6,31.4s9.5,18.2,16.7,25.4c7.1,7.2,15.5,12.9,25.3,17,9.8,4.2,20.4,6.3,31.8,6.3s14.4-.7,20.5-1.9c6.1-1.3,11.7-3.1,16.8-5.6,5.1-2.4,9.8-5.4,14.1-8.8s8.4-7.2,12.4-11.5ZM856.2,116.1v-.4c0-10.4-2.6-18.5-7.8-24.4-5.2-5.8-12.3-10.5-21.3-13.9,2.8-1.4,5.4-3.2,7.9-5.3,2.4-2.1,4.6-4.5,6.4-7.2,1.9-2.8,3.3-5.8,4.5-9.2,1.1-3.5,1.7-7.4,1.7-11.8v-.5c0-12.3-4.6-22-13.7-29.3-9.1-7.3-21.7-10.9-37.7-10.9h-72.2v155.6h74c8.8,0,16.7-.9,23.9-2.7,7.2-1.8,13.3-4.4,18.4-8,5.1-3.5,9-8,11.8-13.3,2.7-5.4,4.1-11.6,4.1-18.7h0ZM813.5,49.7c0,5.7-2.2,9.9-6.7,12.5-4.4,2.6-10.4,3.9-18,3.9h-31.6v-32.9h33.8c7.3,0,12.8,1.4,16.7,4.1,3.8,2.8,5.8,6.7,5.8,11.9v.5ZM822.2,111.9c0,5.8-2.2,10-6.5,12.8-4.3,2.7-10.2,4.1-17.8,4.1h-40.7v-34.2h39.6c8.9,0,15.3,1.5,19.3,4.5,4,3,6,7.2,6,12.3v.5ZM703.1,158.8V3.2h-33.8v95.8L596.4,3.2h-31.6v155.6h33.8V59.9l75.4,98.9h29.1ZM551.1,112.8v-.5c0-6.8-1.1-12.6-3.2-17.5s-5.3-9.2-9.6-12.8-9.4-6.7-15.6-9.3-13.1-5-21-7c-6.7-1.8-12.2-3.4-16.6-4.7s-7.8-2.8-10.3-4.2c-2.5-1.5-4.3-3.2-5.2-5-1-1.9-1.4-4.1-1.4-6.6v-.4c0-3.9,1.7-7.1,5-9.7s8.3-3.9,15-3.9,13.3,1.4,20,4.1c6.7,2.8,13.5,6.5,20.5,11.2l17.8-25.7c-8-6.4-16.8-11.3-26.3-14.7-9.6-3.4-20-5.1-31.5-5.1s-15.3,1.1-22,3.3c-6.7,2.2-12.4,5.4-17.2,9.6-4.8,4.1-8.6,9-11.2,14.8-2.7,5.7-4,12.1-4,19.2v.4c0,7.7,1.2,14.2,3.7,19.4,2.4,5.1,5.9,9.5,10.3,13,4.5,3.4,9.9,6.4,16.2,8.7,6.4,2.4,13.5,4.6,21.3,6.5,6.5,1.6,11.8,3.2,15.9,4.7,4.1,1.4,7.3,2.9,9.5,4.4,2.3,1.5,3.9,3.1,4.7,4.8.8,1.7,1.2,3.6,1.2,5.9v.4c0,4.6-2,8.2-5.9,10.8-3.9,2.6-9.5,3.9-16.6,3.9s-17.1-1.7-24.6-5.1c-7.5-3.4-14.8-8-21.9-13.8l-20.2,24.2c9.3,8.5,19.7,14.7,31.1,18.8,11.4,4.1,23,6.1,34.9,6.1s16.1-1.1,23.1-3.2c7-2.2,13-5.3,18-9.4,5-4,9-9.1,11.8-15.1,2.8-6,4.2-12.8,4.2-20.5h0ZM417.3,158.8V3.2h-36.9l-40.9,65.8L298.6,3.2h-36.9v155.6h33.6V57.9l43.3,65.8h.9l43.8-66.5v101.6h34Z"/>
</svg>